<svg xmlns="http://www.w3.org/2000/svg" xmlns:xlink="http://www.w3.org/1999/xlink" width="2000" zoomAndPan="magnify" viewBox="0 0 1500 1499.999933" height="2000" preserveAspectRatio="xMidYMid meet" version="1.0"><defs><clipPath id="bfcaba903e"><path d="M 744 533.132812 L 756 533.132812 L 756 647 L 744 647 Z M 744 533.132812 " clip-rule="nonzero"/></clipPath><clipPath id="8cfd3145c5"><path d="M 744 852 L 756 852 L 756 966.632812 L 744 966.632812 Z M 744 852 " clip-rule="nonzero"/></clipPath><clipPath id="38759f1942"><path d="M 533.132812 744 L 647 744 L 647 756 L 533.132812 756 Z M 533.132812 744 " clip-rule="nonzero"/></clipPath><clipPath id="9cf576455b"><path d="M 852 744 L 966.632812 744 L 966.632812 756 L 852 756 Z M 852 744 " clip-rule="nonzero"/></clipPath></defs><g clip-path="url(#bfcaba903e)"><path fill="#000000" d="M 749.894531 646.90625 C 746.800781 646.90625 744.292969 644.402344 744.292969 641.304688 L 744.292969 538.75 C 744.292969 535.65625 746.800781 533.144531 749.894531 533.144531 C 752.992188 533.144531 755.5 535.65625 755.5 538.75 L 755.5 641.304688 C 755.5 644.402344 752.992188 646.90625 749.894531 646.90625 " fill-opacity="1" fill-rule="nonzero"/></g><g clip-path="url(#8cfd3145c5)"><path fill="#000000" d="M 749.898438 966.65625 C 746.800781 966.65625 744.296875 964.144531 744.296875 961.050781 L 744.296875 858.496094 C 744.296875 855.398438 746.800781 852.894531 749.898438 852.894531 C 752.992188 852.894531 755.5 855.398438 755.5 858.496094 L 755.5 961.050781 C 755.5 964.144531 752.992188 966.65625 749.898438 966.65625 " fill-opacity="1" fill-rule="nonzero"/></g><path fill="#000000" d="M 673.113281 678.714844 C 671.675781 678.714844 670.242188 678.167969 669.148438 677.074219 L 596.628906 604.550781 C 594.441406 602.367188 594.441406 598.816406 596.628906 596.628906 C 598.816406 594.441406 602.367188 594.441406 604.554688 596.628906 L 677.074219 669.148438 C 679.257812 671.335938 679.257812 674.882812 677.074219 677.074219 C 675.976562 678.167969 674.542969 678.714844 673.113281 678.714844 " fill-opacity="1" fill-rule="nonzero"/><path fill="#000000" d="M 899.207031 904.808594 C 897.777344 904.808594 896.339844 904.257812 895.246094 903.167969 L 822.726562 830.648438 C 820.539062 828.460938 820.539062 824.910156 822.726562 822.722656 C 824.917969 820.535156 828.460938 820.535156 830.652344 822.722656 L 903.171875 895.242188 C 905.359375 897.429688 905.359375 900.980469 903.171875 903.167969 C 902.074219 904.257812 900.640625 904.808594 899.207031 904.808594 " fill-opacity="1" fill-rule="nonzero"/><g clip-path="url(#38759f1942)"><path fill="#000000" d="M 641.304688 755.5 L 538.746094 755.5 C 535.652344 755.5 533.140625 752.992188 533.140625 749.898438 C 533.140625 746.800781 535.652344 744.296875 538.746094 744.296875 L 641.304688 744.296875 C 644.398438 744.296875 646.90625 746.800781 646.90625 749.898438 C 646.90625 752.992188 644.398438 755.5 641.304688 755.5 " fill-opacity="1" fill-rule="nonzero"/></g><g clip-path="url(#9cf576455b)"><path fill="#000000" d="M 961.050781 755.5 L 858.496094 755.5 C 855.398438 755.5 852.894531 752.992188 852.894531 749.898438 C 852.894531 746.804688 855.398438 744.296875 858.496094 744.296875 L 961.050781 744.296875 C 964.144531 744.296875 966.65625 746.804688 966.65625 749.898438 C 966.65625 752.992188 964.144531 755.5 961.050781 755.5 " fill-opacity="1" fill-rule="nonzero"/></g><path fill="#000000" d="M 600.589844 904.808594 C 599.160156 904.808594 597.722656 904.261719 596.628906 903.167969 C 594.441406 900.980469 594.441406 897.429688 596.628906 895.246094 L 669.148438 822.722656 C 671.335938 820.539062 674.886719 820.539062 677.074219 822.722656 C 679.257812 824.910156 679.257812 828.460938 677.074219 830.648438 L 604.554688 903.167969 C 603.460938 904.261719 602.023438 904.808594 600.589844 904.808594 " fill-opacity="1" fill-rule="nonzero"/><path fill="#000000" d="M 826.6875 678.710938 C 825.257812 678.710938 823.820312 678.164062 822.726562 677.070312 C 820.539062 674.882812 820.539062 671.332031 822.726562 669.144531 L 895.246094 596.628906 C 897.433594 594.441406 900.980469 594.441406 903.171875 596.628906 C 905.359375 598.816406 905.359375 602.363281 903.171875 604.550781 L 830.652344 677.070312 C 829.554688 678.164062 828.121094 678.710938 826.6875 678.710938 " fill-opacity="1" fill-rule="nonzero"/><path fill="#000000" d="M 749.898438 668.625 C 705.085938 668.625 668.625 705.085938 668.625 749.898438 C 668.625 794.714844 705.085938 831.171875 749.898438 831.171875 C 794.714844 831.171875 831.171875 794.714844 831.171875 749.898438 C 831.171875 705.085938 794.714844 668.625 749.898438 668.625 Z M 749.898438 842.378906 C 698.90625 842.378906 657.417969 800.890625 657.417969 749.898438 C 657.417969 698.90625 698.90625 657.417969 749.898438 657.417969 C 800.890625 657.417969 842.378906 698.90625 842.378906 749.898438 C 842.378906 800.890625 800.890625 842.378906 749.898438 842.378906 " fill-opacity="1" fill-rule="nonzero"/><path fill="#000000" d="M 708.34375 655.175781 C 706.144531 655.175781 704.058594 653.871094 703.164062 651.714844 L 683.539062 604.339844 C 682.359375 601.480469 683.714844 598.199219 686.570312 597.015625 C 689.429688 595.832031 692.710938 597.1875 693.894531 600.046875 L 713.515625 647.425781 C 714.699219 650.28125 713.34375 653.5625 710.484375 654.746094 C 709.78125 655.035156 709.058594 655.175781 708.34375 655.175781 " fill-opacity="1" fill-rule="nonzero"/><path fill="#000000" d="M 811.078125 903.207031 C 808.882812 903.207031 806.800781 901.90625 805.902344 899.75 L 786.277344 852.371094 C 785.09375 849.511719 786.453125 846.234375 789.308594 845.050781 C 792.171875 843.867188 795.449219 845.222656 796.632812 848.082031 L 816.257812 895.457031 C 817.441406 898.316406 816.082031 901.597656 813.226562 902.78125 C 812.523438 903.070312 811.796875 903.207031 811.078125 903.207031 " fill-opacity="1" fill-rule="nonzero"/><path fill="#000000" d="M 649.566406 713.945312 C 648.851562 713.945312 648.125 713.808594 647.425781 713.515625 L 600.050781 693.894531 C 597.191406 692.710938 595.832031 689.429688 597.015625 686.570312 C 598.203125 683.714844 601.476562 682.355469 604.335938 683.539062 L 651.714844 703.164062 C 654.570312 704.347656 655.929688 707.628906 654.746094 710.484375 C 653.851562 712.640625 651.765625 713.945312 649.566406 713.945312 " fill-opacity="1" fill-rule="nonzero"/><path fill="#000000" d="M 897.597656 816.683594 C 896.882812 816.683594 896.15625 816.546875 895.457031 816.257812 L 848.082031 796.632812 C 845.222656 795.449219 843.863281 792.171875 845.046875 789.3125 C 846.230469 786.453125 849.515625 785.097656 852.371094 786.277344 L 899.746094 805.902344 C 902.601562 807.089844 903.964844 810.367188 902.78125 813.226562 C 901.886719 815.382812 899.796875 816.683594 897.597656 816.683594 " fill-opacity="1" fill-rule="nonzero"/><path fill="#000000" d="M 602.195312 816.683594 C 599.996094 816.683594 597.910156 815.382812 597.015625 813.226562 C 595.832031 810.367188 597.191406 807.085938 600.050781 805.902344 L 647.425781 786.277344 C 650.285156 785.09375 653.5625 786.453125 654.746094 789.308594 C 655.929688 792.167969 654.574219 795.449219 651.714844 796.632812 L 604.335938 816.257812 C 603.636719 816.542969 602.910156 816.683594 602.195312 816.683594 " fill-opacity="1" fill-rule="nonzero"/><path fill="#000000" d="M 850.226562 713.945312 C 848.027344 713.945312 845.941406 712.644531 845.046875 710.484375 C 843.863281 707.628906 845.222656 704.347656 848.082031 703.167969 L 895.457031 683.542969 C 898.316406 682.355469 901.59375 683.714844 902.78125 686.574219 C 903.964844 689.433594 902.601562 692.710938 899.742188 693.894531 L 852.371094 713.519531 C 851.667969 713.808594 850.941406 713.945312 850.226562 713.945312 " fill-opacity="1" fill-rule="nonzero"/><path fill="#000000" d="M 688.714844 903.207031 C 688 903.207031 687.273438 903.070312 686.570312 902.78125 C 683.714844 901.597656 682.359375 898.316406 683.539062 895.457031 L 703.164062 848.082031 C 704.347656 845.222656 707.628906 843.867188 710.484375 845.050781 C 713.34375 846.234375 714.699219 849.511719 713.515625 852.371094 L 693.894531 899.746094 C 693 901.90625 690.914062 903.207031 688.714844 903.207031 " fill-opacity="1" fill-rule="nonzero"/><path fill="#000000" d="M 791.457031 655.175781 C 790.738281 655.175781 790.011719 655.035156 789.308594 654.746094 C 786.453125 653.5625 785.09375 650.28125 786.277344 647.425781 L 805.902344 600.046875 C 807.089844 597.1875 810.367188 595.832031 813.226562 597.015625 C 816.082031 598.199219 817.441406 601.480469 816.257812 604.339844 L 796.632812 651.714844 C 795.738281 653.871094 793.652344 655.175781 791.457031 655.175781 " fill-opacity="1" fill-rule="nonzero"/></svg>