<svg xmlns="http://www.w3.org/2000/svg" xmlns:xlink="http://www.w3.org/1999/xlink" width="2000" zoomAndPan="magnify" viewBox="0 0 1500 1499.999933" height="2000" preserveAspectRatio="xMidYMid meet" version="1.0"><defs><clipPath id="d2fee4a575"><path d="M 450 493.5 L 1050 493.5 L 1050 1006.5 L 450 1006.5 Z M 450 493.5 " clip-rule="nonzero"/></clipPath></defs><g clip-path="url(#d2fee4a575)"><path fill="#000000" d="M 982.523438 511.628906 C 932.394531 483.097656 872.058594 488.546875 825.097656 525.898438 C 798.941406 546.601562 779.226562 573.253906 764.761719 607.234375 C 759.410156 619.71875 754.953125 632.101562 750.199219 645.28125 C 750.199219 645.179688 750.199219 645.179688 750.097656 645.082031 C 730.878906 588.410156 704.824219 549.476562 667.867188 522.527344 C 629.230469 494.390625 580.484375 487.457031 537.390625 504 C 494.492188 520.449219 463.085938 557.996094 453.375 604.363281 C 444.855469 645.082031 452.382812 686.097656 477.351562 733.554688 C 504.101562 784.476562 542.34375 831.339844 597.824219 880.972656 C 627.644531 907.722656 658.953125 933.78125 689.167969 959.042969 C 706.109375 973.210938 723.050781 987.378906 739.894531 1001.644531 C 744.054688 1005.210938 747.820312 1006.5 751.1875 1006.5 C 755.945312 1006.5 760.007812 1003.726562 763.277344 1000.953125 C 773.082031 992.332031 783.289062 983.910156 793.195312 975.789062 L 813.011719 959.339844 C 868.886719 913.171875 926.648438 865.417969 973.308594 807.265625 C 1007.6875 764.367188 1040.679688 716.019531 1048.902344 653.503906 C 1056.035156 597.328125 1028.296875 537.6875 982.523438 511.628906 Z M 1034.339844 651.621094 C 1026.613281 710.570312 994.910156 756.933594 961.816406 798.148438 C 916.046875 855.316406 858.882812 902.472656 803.597656 948.246094 L 783.785156 964.59375 C 773.777344 972.816406 763.472656 981.335938 753.46875 990.054688 C 751.785156 991.539062 751.089844 991.9375 751.089844 992.035156 C 750.890625 991.9375 750.199219 991.640625 749.109375 990.648438 C 732.265625 976.28125 715.324219 962.113281 698.285156 947.949219 C 668.164062 922.78125 636.957031 896.824219 607.335938 870.175781 C 553.242188 821.730469 515.988281 776.15625 490.03125 726.816406 C 466.75 682.53125 459.617188 644.585938 467.445312 607.335938 C 476.359375 565.128906 503.703125 532.4375 542.542969 517.574219 C 556.3125 512.324219 570.777344 509.648438 585.140625 509.648438 C 611.101562 509.648438 637.058594 518.070312 659.25 534.21875 C 694.121094 559.679688 717.800781 595.246094 736.230469 649.640625 C 737.617188 653.800781 739.003906 658.058594 740.390625 662.617188 L 742.570312 669.75 C 743.460938 672.722656 746.234375 674.703125 749.304688 674.804688 C 752.378906 675.101562 755.152344 673.019531 756.242188 670.148438 C 758.621094 663.90625 760.800781 657.664062 763.078125 651.621094 C 767.933594 638.144531 772.589844 625.464844 777.9375 612.882812 C 791.511719 581.082031 809.839844 556.3125 834.015625 537.191406 C 876.316406 503.605469 930.410156 498.652344 975.292969 524.210938 C 1016.210938 547.496094 1040.976562 601.09375 1034.339844 651.621094 Z M 1034.339844 651.621094 " fill-opacity="1" fill-rule="nonzero"/></g></svg>