<svg xmlns="http://www.w3.org/2000/svg" xmlns:xlink="http://www.w3.org/1999/xlink" width="2000" zoomAndPan="magnify" viewBox="0 0 1500 1499.999933" height="2000" preserveAspectRatio="xMidYMid meet" version="1.0"><path fill="#000000" d="M 739.679688 565.894531 C 740.09375 566.234375 739.832031 566.011719 739.679688 565.894531 Z M 739.679688 565.894531 " fill-opacity="1" fill-rule="nonzero"/><path fill="#000000" d="M 956.644531 634.910156 C 955.851562 633.882812 954.871094 633.519531 953.613281 633.386719 C 944.84375 632.453125 935.984375 632.222656 927.183594 632.761719 C 916.542969 633.417969 905.945312 635.140625 895.675781 638.011719 C 883.917969 641.292969 872.539062 646.078125 861.925781 652.097656 C 849.503906 659.144531 838.070312 667.953125 827.8125 677.871094 C 824.433594 681.136719 821.191406 684.53125 818.050781 688.027344 C 830.726562 658.273438 838.972656 626.65625 842.277344 594.449219 C 842.613281 591.113281 842.902344 587.761719 843.132812 584.414062 C 850.421875 578.722656 857.117188 572.289062 862.949219 565.109375 C 868.511719 558.261719 873.351562 550.875 877.269531 542.964844 C 880.988281 535.453125 883.957031 527.558594 886.132812 519.46875 C 888.261719 511.527344 889.628906 503.382812 890.40625 495.203125 C 891.140625 487.476562 891.292969 479.703125 890.960938 471.953125 C 890.632812 464.226562 889.804688 456.53125 888.625 448.898438 C 887.570312 442.050781 886.171875 435.257812 884.492188 428.535156 C 882.976562 422.515625 881.226562 416.546875 879.230469 410.667969 C 877.476562 405.496094 875.519531 400.402344 873.375 395.382812 C 871.867188 391.871094 870.265625 388.390625 868.4375 385.039062 C 868.105469 384.4375 867.773438 383.835938 867.417969 383.25 C 866.4375 381.582031 863.839844 380.632812 862.140625 381.867188 C 856.832031 385.710938 852.691406 390.851562 849.019531 396.234375 C 844.628906 402.671875 840.949219 409.578125 837.601562 416.601562 C 833.703125 424.777344 830.25 433.175781 827.109375 441.671875 C 824.085938 449.855469 821.359375 458.144531 818.953125 466.527344 C 816.855469 473.820312 814.972656 481.191406 813.523438 488.648438 C 812.027344 496.34375 811.164062 504.101562 811.109375 511.949219 C 811.039062 521.960938 812.171875 532.050781 814.632812 541.761719 C 816.578125 549.425781 819.394531 556.894531 822.988281 563.945312 C 825.457031 568.78125 828.335938 573.421875 831.636719 577.730469 C 832.886719 579.359375 834.167969 580.992188 835.546875 582.53125 C 832.855469 624.03125 821.648438 664.925781 803.085938 702.121094 C 802.230469 703.835938 801.355469 705.535156 800.46875 707.230469 C 800.617188 705.566406 800.746094 703.90625 800.847656 702.238281 C 801.734375 687.542969 800.722656 672.753906 798.070312 658.273438 C 795.417969 643.777344 790.964844 629.683594 784.996094 616.214844 C 779.023438 602.753906 771.378906 590.132812 762.3125 578.53125 C 757.871094 572.851562 753.125 567.308594 747.6875 562.554688 C 741.976562 557.566406 735.390625 553.269531 727.9375 551.460938 C 725.984375 550.992188 723.980469 550.707031 721.972656 550.550781 C 720.390625 550.4375 718.570312 551.824219 718.253906 553.382812 C 715.253906 567.964844 713.535156 582.855469 713.519531 597.75 C 713.503906 612.515625 715.175781 627.359375 718.839844 641.671875 C 722.019531 654.066406 726.789062 666.105469 733.058594 677.269531 C 739.121094 688.050781 746.652344 698.109375 755.46875 706.792969 C 759.96875 711.222656 764.835938 715.28125 769.964844 718.964844 C 775.234375 722.730469 780.992188 726.558594 787.316406 728.265625 C 787.441406 728.636719 787.625 728.992188 787.847656 729.324219 C 782.039062 738.609375 775.746094 747.59375 768.980469 756.199219 C 755.125 773.8125 739.277344 789.535156 722.351562 804.179688 C 718.371094 807.621094 714.34375 811.007812 710.292969 814.382812 C 712.316406 807.914062 713.835938 801.292969 714.820312 794.5625 C 716.75 781.324219 716.765625 768.007812 714.804688 754.769531 C 713.007812 742.621094 709.375 730.851562 704.238281 719.714844 C 699.316406 709.046875 692.914062 699.121094 685.390625 690.113281 C 677.867188 681.105469 669.121094 673.152344 659.492188 666.453125 C 658.335938 665.652344 657.171875 664.871094 655.988281 664.109375 C 654.039062 662.84375 650.75 664 650.328125 666.414062 C 647.101562 684.523438 644.480469 702.808594 643.871094 721.21875 C 643.570312 730.296875 643.769531 739.394531 644.640625 748.441406 C 645.390625 756.160156 646.476562 763.863281 648.761719 771.296875 C 652.472656 783.359375 658.667969 794.414062 666.390625 804.355469 C 672.214844 811.851562 678.933594 818.652344 686.277344 824.664062 C 688.199219 826.238281 690.164062 827.828125 692.195312 829.332031 C 684.347656 835.808594 676.550781 842.339844 668.949219 849.109375 C 652.671875 863.617188 637.691406 879.480469 624.242188 896.664062 C 618.875 903.523438 613.8125 910.59375 609.09375 917.859375 C 610.375 912.695312 611.492188 907.492188 612.402344 902.242188 C 613.597656 895.328125 614.492188 888.351562 615.003906 881.347656 C 615.535156 874.046875 615.640625 866.714844 615.25 859.40625 C 614.824219 851.476562 613.820312 843.558594 612.15625 835.800781 C 610.410156 827.679688 607.867188 819.800781 604.59375 812.167969 C 601.277344 804.425781 597.105469 797.0625 592.144531 790.253906 C 586.566406 782.597656 580.140625 775.617188 572.925781 769.484375 C 571.097656 767.929688 569.222656 766.441406 567.316406 764.984375 C 567.148438 764.828125 566.96875 764.683594 566.777344 764.566406 C 566.761719 764.558594 566.746094 764.542969 566.738281 764.535156 C 565.125 763.308594 562.355469 764.234375 561.460938 765.917969 C 561.316406 766.195312 561.207031 766.464844 561.128906 766.734375 C 561.113281 766.773438 561.09375 766.8125 561.070312 766.859375 C 558.253906 773.820312 555.785156 780.921875 553.578125 788.101562 C 550.019531 799.703125 547.183594 811.535156 545.277344 823.511719 C 543.015625 837.738281 541.9375 852.210938 543.015625 866.597656 C 544.152344 881.632812 547.558594 896.5 554.332031 910.03125 C 557.796875 916.953125 562.179688 923.40625 567.277344 929.226562 C 573.40625 936.210938 580.617188 942.914062 589.542969 946.015625 C 590.5625 946.371094 591.609375 946.640625 592.660156 946.863281 C 586.011719 960.550781 580.5625 974.828125 576.527344 989.703125 C 566.902344 1025.179688 564.648438 1062.273438 563.714844 1098.859375 C 563.582031 1104.054688 563.484375 1109.242188 563.40625 1114.4375 C 563.328125 1119.40625 571.042969 1119.40625 571.121094 1114.4375 C 571.699219 1076.96875 572.925781 1039.007812 581.320312 1002.347656 C 585.417969 984.453125 591.472656 967.304688 599.289062 950.964844 C 610.660156 956.058594 622.523438 959.972656 634.71875 962.519531 C 647.171875 965.117188 659.910156 966.421875 672.628906 966.40625 C 685.359375 966.394531 698.113281 965.042969 710.578125 962.472656 C 723.054688 959.902344 735.1875 955.996094 746.867188 950.925781 C 758.308594 945.960938 769.226562 939.769531 779.308594 932.421875 C 780.558594 931.511719 781.792969 930.585938 783.011719 929.644531 C 784.128906 928.78125 784.925781 927.808594 784.925781 926.308594 C 784.925781 924.945312 784.183594 923.671875 783.011719 922.976562 C 771.46875 916.121094 758.996094 910.789062 746.082031 907.136719 C 733.222656 903.5 719.828125 901.511719 706.46875 901.246094 C 693.4375 900.992188 680.351562 902.453125 667.683594 905.507812 C 655.304688 908.503906 643.277344 913.074219 631.980469 918.96875 C 623.480469 923.398438 615.394531 928.648438 607.859375 934.585938 C 612.789062 925.945312 618.21875 917.566406 624.152344 909.460938 C 636.578125 892.496094 650.699219 876.632812 666.011719 862.238281 C 676.324219 852.550781 687.15625 843.449219 698.066406 834.441406 C 698.242188 834.605469 698.429688 834.757812 698.636719 834.90625 C 710.695312 843.042969 723.917969 849.425781 737.710938 854.007812 C 751.519531 858.601562 765.96875 861.320312 780.496094 862.191406 C 794.960938 863.0625 809.566406 861.976562 823.753906 858.996094 C 837.4375 856.117188 850.886719 851.394531 863.050781 844.445312 C 875.046875 837.601562 885.816406 828.40625 893.515625 816.859375 C 894.449219 815.460938 895.328125 814.027344 896.15625 812.566406 C 897.398438 810.382812 896.253906 807.597656 893.847656 806.894531 C 881.195312 803.214844 868.28125 800.582031 855.222656 798.851562 C 842.398438 797.152344 829.460938 796.421875 816.53125 796.636719 C 803.308594 796.851562 790.109375 798.089844 777.054688 800.226562 C 764.296875 802.316406 751.691406 805.34375 739.371094 809.289062 C 732.765625 811.402344 726.246094 813.796875 719.828125 816.425781 C 736.941406 802.03125 753.378906 786.894531 767.820312 769.777344 C 777.574219 758.207031 786.507812 745.957031 794.539062 733.136719 C 807.722656 735.203125 821.128906 735.542969 834.398438 734.015625 C 848.402344 732.402344 862.148438 728.976562 875.171875 723.542969 C 887.730469 718.300781 899.378906 711.445312 910.070312 703.023438 C 920.101562 695.121094 928.972656 685.90625 936.695312 675.738281 C 944.425781 665.566406 950.726562 654.4375 955.621094 642.636719 C 956.214844 641.191406 956.785156 639.75 957.339844 638.289062 C 957.757812 637.148438 957.332031 635.804688 956.644531 634.910156 Z M 593.371094 941.800781 C 593.109375 942.449219 592.976562 942.527344 593.46875 941.546875 C 593.441406 941.632812 593.410156 941.714844 593.371094 941.800781 Z M 590.507812 938.164062 C 590.46875 938.148438 590.398438 938.113281 590.253906 938.050781 C 589.796875 937.839844 589.335938 937.632812 588.886719 937.402344 C 587.800781 936.851562 586.742188 936.242188 585.71875 935.59375 C 584.851562 935.039062 584.011719 934.460938 583.1875 933.84375 C 583.070312 933.757812 582.253906 933.117188 582.980469 933.695312 C 582.816406 933.566406 582.65625 933.441406 582.492188 933.3125 C 582.007812 932.917969 581.527344 932.523438 581.058594 932.113281 C 579.3125 930.617188 577.664062 929.027344 576.066406 927.382812 C 574.617188 925.886719 573.203125 924.339844 571.855469 922.75 C 571.289062 922.085938 570.734375 921.417969 570.195312 920.738281 C 570.035156 920.535156 569.117188 919.449219 569.839844 920.296875 C 569.507812 919.902344 569.214844 919.472656 568.90625 919.0625 C 566.683594 916.066406 564.664062 912.917969 562.851562 909.660156 C 561.996094 908.125 561.183594 906.566406 560.421875 904.984375 C 560.019531 904.15625 559.632812 903.332031 559.265625 902.488281 C 559.09375 902.113281 558.925781 901.734375 558.761719 901.347656 C 558.730469 901.269531 558.414062 900.5 558.660156 901.125 C 558.917969 901.75 558.515625 900.769531 558.476562 900.667969 C 557.125 897.371094 555.960938 894.007812 554.972656 890.597656 C 553.964844 887.105469 553.121094 883.570312 552.453125 880.007812 C 552.128906 878.308594 551.851562 876.59375 551.59375 874.878906 C 551.558594 874.632812 551.527344 874.394531 551.488281 874.148438 C 551.472656 874.046875 551.355469 873.230469 551.457031 873.921875 C 551.558594 874.617188 551.441406 873.800781 551.425781 873.699219 C 551.394531 873.453125 551.363281 873.207031 551.332031 872.964844 C 551.226562 872.0625 551.125 871.167969 551.03125 870.265625 C 550.316406 863.210938 550.136719 856.109375 550.390625 849.023438 C 550.515625 845.519531 550.746094 842.015625 551.0625 838.527344 C 551.21875 836.828125 551.394531 835.128906 551.59375 833.433594 C 551.6875 832.613281 551.796875 831.789062 551.894531 830.96875 C 551.925781 830.707031 552.144531 829.292969 551.941406 830.597656 C 552.011719 830.136719 552.066406 829.671875 552.136719 829.210938 C 553.863281 817.066406 556.578125 805.074219 560.035156 793.308594 C 561.941406 786.835938 564.078125 780.429688 566.453125 774.113281 C 566.964844 774.539062 567.472656 774.949219 567.972656 775.378906 C 569.769531 776.921875 571.523438 778.519531 573.21875 780.171875 C 576.453125 783.308594 579.507812 786.625 582.355469 790.113281 C 582.691406 790.53125 583.03125 790.957031 583.371094 791.378906 C 583.527344 791.574219 583.679688 791.773438 583.835938 791.96875 C 583.402344 791.558594 583.898438 792.042969 583.988281 792.167969 C 584.636719 793.015625 585.269531 793.875 585.894531 794.746094 C 587.144531 796.492188 588.347656 798.265625 589.496094 800.070312 C 591.710938 803.570312 593.734375 807.1875 595.554688 810.902344 C 596.007812 811.84375 596.457031 812.785156 596.886719 813.734375 C 597.097656 814.1875 597.296875 814.644531 597.496094 815.109375 C 597.589844 815.316406 597.683594 815.53125 597.773438 815.742188 C 597.835938 815.894531 598.183594 816.722656 597.945312 816.125 C 597.707031 815.539062 598.039062 816.351562 598.105469 816.511719 C 598.191406 816.722656 598.285156 816.9375 598.371094 817.144531 C 598.570312 817.640625 598.769531 818.132812 598.964844 818.636719 C 599.324219 819.554688 599.671875 820.480469 600.003906 821.40625 C 601.355469 825.132812 602.519531 828.941406 603.507812 832.785156 C 604.464844 836.519531 605.25 840.292969 605.882812 844.097656 C 606.046875 845.0625 606.191406 846.027344 606.332031 847 C 606.378906 847.308594 606.414062 847.617188 606.460938 847.933594 C 606.476562 848.042969 606.492188 848.160156 606.5 848.226562 C 606.5 848.242188 606.507812 848.265625 606.507812 848.28125 L 606.507812 848.289062 C 606.507812 848.289062 606.507812 848.289062 606.507812 848.28125 C 606.539062 848.515625 606.5625 848.746094 606.59375 848.976562 C 606.824219 850.859375 607.015625 852.742188 607.179688 854.636719 C 607.796875 861.921875 607.890625 869.253906 607.550781 876.554688 C 607.386719 880.042969 607.125 883.535156 606.761719 887.007812 C 606.59375 888.691406 606.398438 890.363281 606.183594 892.039062 C 606.160156 892.226562 606.136719 892.410156 606.113281 892.601562 C 606.089844 892.765625 606.015625 893.382812 606.082031 892.835938 C 606.078125 892.886719 606.070312 892.941406 606.070312 892.972656 C 606.039062 893.191406 606.007812 893.40625 605.976562 893.621094 C 605.859375 894.417969 605.746094 895.203125 605.628906 896 C 604.71875 901.972656 603.546875 907.902344 602.140625 913.773438 C 601 918.554688 599.703125 923.300781 598.246094 927.992188 C 597.21875 931.304688 596.117188 934.585938 594.914062 937.835938 C 594.726562 938.34375 594.527344 938.84375 594.335938 939.347656 C 594.28125 939.332031 594.226562 939.324219 594.171875 939.316406 C 593.101562 939.0625 592.042969 938.738281 591 938.351562 C 590.839844 938.289062 590.671875 938.234375 590.507812 938.164062 Z M 613.242188 940.070312 C 613.367188 939.972656 613.496094 939.878906 613.621094 939.777344 C 613.019531 940.25 613.472656 939.894531 613.597656 939.800781 C 613.890625 939.578125 614.183594 939.355469 614.484375 939.128906 C 615.117188 938.652344 615.757812 938.171875 616.398438 937.703125 C 621.367188 934.066406 626.558594 930.742188 631.929688 927.738281 C 634.613281 926.234375 637.34375 924.8125 640.113281 923.476562 C 641.449219 922.828125 642.796875 922.203125 644.15625 921.59375 C 644.835938 921.292969 645.511719 920.992188 646.199219 920.699219 C 646.371094 920.621094 646.554688 920.542969 646.726562 920.476562 C 647.070312 920.328125 647.425781 920.1875 647.773438 920.042969 C 653.46875 917.710938 659.308594 915.71875 665.238281 914.089844 C 671.171875 912.460938 677.207031 911.195312 683.300781 910.316406 C 683.664062 910.261719 684.03125 910.195312 684.402344 910.164062 C 683.617188 910.230469 684.480469 910.15625 684.796875 910.109375 C 685.582031 910.007812 686.378906 909.914062 687.164062 909.824219 C 688.722656 909.652344 690.28125 909.5 691.847656 909.382812 C 695.082031 909.128906 698.328125 908.980469 701.574219 908.933594 C 708.0625 908.851562 714.558594 909.191406 721.007812 909.9375 C 721.695312 910.023438 722.375 910.101562 723.054688 910.195312 C 723.046875 910.195312 723.617188 910.269531 723.808594 910.300781 C 724.25 910.363281 724.695312 910.433594 725.136719 910.496094 C 726.742188 910.734375 728.347656 911.003906 729.941406 911.296875 C 733.136719 911.882812 736.308594 912.570312 739.460938 913.359375 C 745.757812 914.933594 751.960938 916.910156 758.007812 919.269531 C 758.6875 919.53125 759.359375 919.804688 760.039062 920.082031 C 760.398438 920.226562 760.761719 920.382812 761.125 920.527344 C 761.8125 920.8125 761.273438 920.589844 761.132812 920.527344 C 761.339844 920.613281 761.542969 920.707031 761.75 920.792969 C 763.238281 921.433594 764.71875 922.09375 766.195312 922.78125 C 768.832031 924.015625 771.433594 925.34375 773.992188 926.734375 C 765.675781 932.664062 756.820312 937.832031 747.570312 942.164062 C 746.175781 942.820312 744.769531 943.453125 743.359375 944.070312 C 743.042969 944.210938 742.71875 944.347656 742.402344 944.488281 C 742.148438 944.59375 741.160156 945.035156 741.953125 944.679688 C 741.230469 945.003906 740.488281 945.289062 739.746094 945.589844 C 736.894531 946.75 734 947.820312 731.09375 948.832031 C 725.261719 950.847656 719.328125 952.554688 713.324219 953.957031 C 710.324219 954.660156 707.300781 955.292969 704.261719 955.839844 C 702.742188 956.121094 701.222656 956.375 699.695312 956.613281 C 698.953125 956.730469 698.21875 956.835938 697.480469 956.945312 C 697.132812 956.992188 696.792969 957.039062 696.445312 957.089844 C 695.882812 957.167969 697.148438 957 696.585938 957.078125 C 696.335938 957.105469 696.089844 957.136719 695.84375 957.175781 C 689.71875 957.964844 683.5625 958.441406 677.390625 958.613281 C 671.226562 958.78125 665.046875 958.644531 658.898438 958.1875 C 655.828125 957.957031 652.757812 957.65625 649.695312 957.269531 C 649.417969 957.230469 649.148438 957.199219 648.871094 957.160156 C 648.847656 957.160156 648.839844 957.152344 648.800781 957.152344 C 648.652344 957.128906 648.507812 957.113281 648.359375 957.089844 C 647.574219 956.984375 646.785156 956.867188 646 956.746094 C 644.425781 956.503906 642.859375 956.242188 641.292969 955.957031 C 629.34375 953.789062 617.695312 950.335938 606.460938 945.730469 C 607.511719 944.796875 608.574219 943.878906 609.65625 942.972656 C 610.835938 941.988281 612.03125 941.023438 613.242188 940.070312 Z M 707.539062 758.167969 C 707.53125 758.128906 707.523438 758.042969 707.507812 757.964844 C 707.523438 758.035156 707.53125 758.097656 707.539062 758.167969 Z M 660.179688 676.472656 C 660.410156 676.652344 660.589844 676.796875 660.179688 676.472656 Z M 696.730469 823.066406 C 696.144531 822.640625 695.558594 822.207031 694.980469 821.777344 C 694.757812 821.613281 694.539062 821.445312 694.324219 821.273438 C 694.308594 821.265625 694.292969 821.25 694.269531 821.234375 C 694.085938 821.089844 693.898438 820.941406 693.714844 820.804688 C 686.742188 815.324219 680.304688 809.132812 674.613281 802.332031 C 673.75 801.308594 672.914062 800.265625 672.082031 799.207031 C 672.074219 799.191406 672.058594 799.183594 672.050781 799.167969 C 672.035156 799.144531 672.019531 799.128906 672.003906 799.105469 C 671.929688 799.007812 671.851562 798.898438 671.765625 798.804688 C 671.820312 798.867188 671.859375 798.921875 671.898438 798.96875 C 671.703125 798.714844 671.511719 798.457031 671.320312 798.203125 C 670.871094 797.609375 670.433594 797.015625 670 796.414062 C 668.355469 794.136719 666.804688 791.789062 665.347656 789.390625 C 663.789062 786.820312 662.339844 784.179688 661.019531 781.476562 C 660.339844 780.089844 659.707031 778.683594 659.089844 777.261719 C 659.082031 777.238281 659.066406 777.21875 659.058594 777.195312 C 659.03125 777.125 659.007812 777.046875 658.976562 776.984375 C 658.84375 776.660156 658.714844 776.335938 658.582031 776.011719 C 658.273438 775.242188 657.972656 774.460938 657.6875 773.675781 C 656.589844 770.679688 655.652344 767.621094 654.886719 764.519531 C 654.484375 762.898438 654.136719 761.269531 653.835938 759.632812 C 653.691406 758.847656 653.558594 758.058594 653.4375 757.273438 C 653.351562 756.730469 653.273438 756.183594 653.191406 755.636719 C 653.152344 755.386719 653.121094 755.140625 653.082031 754.886719 C 653.074219 754.808594 653.066406 754.761719 653.058594 754.71875 C 653.050781 754.671875 653.042969 754.578125 653.019531 754.417969 C 651.886719 745.585938 651.390625 736.695312 651.4375 727.792969 C 651.484375 718.871094 652.054688 709.964844 652.980469 701.097656 C 653.210938 698.84375 653.476562 696.589844 653.753906 694.335938 C 653.882812 693.269531 654.023438 692.210938 654.160156 691.144531 C 654.183594 690.976562 654.292969 690.160156 654.199219 690.859375 C 654.230469 690.613281 654.269531 690.359375 654.300781 690.113281 C 654.386719 689.488281 654.46875 688.863281 654.5625 688.238281 C 655.1875 683.804688 655.882812 679.382812 656.621094 674.976562 C 656.675781 674.652344 656.738281 674.320312 656.792969 673.996094 C 657.53125 674.527344 658.28125 675.054688 659.015625 675.59375 C 659.300781 675.800781 659.578125 676.019531 659.855469 676.226562 C 659.910156 676.265625 660.039062 676.367188 660.164062 676.464844 C 660.710938 676.890625 661.257812 677.324219 661.800781 677.753906 C 662.894531 678.632812 663.976562 679.539062 665.039062 680.449219 C 669.304688 684.113281 673.324219 688.066406 677.066406 692.265625 C 678.941406 694.363281 680.746094 696.519531 682.480469 698.734375 C 682.527344 698.789062 682.574219 698.851562 682.613281 698.902344 C 682.613281 698.902344 682.636719 698.941406 682.707031 699.027344 C 682.921875 699.304688 683.128906 699.582031 683.347656 699.867188 C 683.769531 700.433594 684.1875 700.996094 684.605469 701.566406 C 685.429688 702.703125 686.238281 703.851562 687.035156 705.015625 C 690.195312 709.671875 693.066406 714.527344 695.597656 719.542969 C 696.847656 722.027344 698.203125 724.574219 699.144531 727.191406 C 699.097656 727.078125 698.835938 726.445312 699.105469 727.109375 C 699.160156 727.246094 699.222656 727.386719 699.277344 727.523438 C 699.40625 727.847656 699.546875 728.171875 699.679688 728.503906 C 699.941406 729.160156 700.195312 729.808594 700.449219 730.464844 C 700.949219 731.777344 701.4375 733.097656 701.890625 734.433594 C 703.851562 740.121094 705.394531 745.949219 706.511719 751.855469 C 706.804688 753.398438 707.070312 754.949219 707.300781 756.5 C 707.363281 756.886719 707.414062 757.28125 707.46875 757.664062 C 707.476562 757.734375 707.484375 757.796875 707.5 757.859375 C 707.507812 757.914062 707.515625 757.996094 707.53125 758.144531 C 707.632812 758.921875 707.722656 759.703125 707.808594 760.484375 C 708.15625 763.609375 708.386719 766.742188 708.503906 769.875 C 708.734375 776.160156 708.511719 782.449219 707.839844 788.703125 C 707.753906 789.480469 707.664062 790.261719 707.5625 791.042969 C 707.546875 791.164062 707.515625 791.363281 707.5 791.503906 C 707.445312 791.898438 707.394531 792.292969 707.332031 792.683594 C 707.097656 794.238281 706.84375 795.789062 706.558594 797.332031 C 705.988281 800.417969 705.308594 803.492188 704.515625 806.53125 C 703.71875 809.574219 702.816406 812.582031 701.800781 815.554688 C 701.289062 817.046875 700.757812 818.519531 700.195312 819.984375 C 699.917969 820.71875 699.625 821.453125 699.332031 822.179688 C 699.207031 822.488281 699.078125 822.804688 698.945312 823.113281 C 698.890625 823.242188 698.660156 823.792969 698.945312 823.121094 C 698.859375 823.328125 698.769531 823.527344 698.683594 823.738281 C 698.628906 823.859375 698.566406 823.984375 698.511719 824.117188 C 698.46875 824.152344 698.429688 824.183594 698.382812 824.222656 C 697.835938 823.835938 697.269531 823.460938 696.730469 823.066406 Z M 728.453125 842.324219 C 728.5 842.347656 728.546875 842.363281 728.570312 842.371094 C 728.53125 842.355469 728.492188 842.339844 728.453125 842.324219 Z M 884.273438 816.550781 C 884.367188 816.433594 884.335938 816.464844 884.273438 816.550781 Z M 723.640625 823.144531 C 725.128906 822.539062 726.617188 821.953125 728.113281 821.382812 C 731.109375 820.242188 734.125 819.152344 737.15625 818.117188 C 749.289062 813.996094 761.742188 810.777344 774.347656 808.476562 C 777.503906 807.898438 780.667969 807.382812 783.835938 806.925781 C 784.5 806.832031 785.171875 806.742188 785.84375 806.640625 C 785.804688 806.648438 786.382812 806.5625 786.589844 806.539062 C 787.03125 806.484375 787.472656 806.425781 787.910156 806.371094 C 789.5 806.167969 791.097656 805.984375 792.6875 805.8125 C 799.058594 805.136719 805.460938 804.679688 811.871094 804.464844 C 824.632812 804.03125 837.414062 804.519531 850.105469 805.9375 C 851.695312 806.117188 853.292969 806.308594 854.875 806.515625 C 854.988281 806.53125 855.105469 806.546875 855.222656 806.5625 C 855.242188 806.570312 855.28125 806.570312 855.328125 806.578125 C 855.714844 806.632812 856.09375 806.6875 856.476562 806.742188 C 857.296875 806.855469 858.121094 806.980469 858.9375 807.101562 C 862.109375 807.582031 865.265625 808.121094 868.414062 808.722656 C 874.601562 809.898438 880.757812 811.308594 886.835938 812.945312 C 886.835938 812.945312 886.835938 812.945312 886.835938 812.953125 C 886.394531 813.609375 885.949219 814.257812 885.492188 814.898438 C 885.261719 815.214844 885.03125 815.539062 884.800781 815.847656 C 884.683594 816.003906 884.566406 816.164062 884.445312 816.320312 C 884.382812 816.398438 883.933594 816.984375 884.175781 816.683594 C 884.128906 816.742188 884.082031 816.796875 884.058594 816.820312 C 883.933594 816.976562 883.8125 817.128906 883.6875 817.285156 C 883.441406 817.59375 883.195312 817.894531 882.949219 818.195312 C 882.414062 818.835938 881.875 819.46875 881.320312 820.09375 C 880.214844 821.34375 879.066406 822.554688 877.886719 823.730469 C 875.578125 826.015625 873.140625 828.167969 870.589844 830.175781 C 870.480469 830.257812 870.371094 830.34375 870.265625 830.429688 C 870.242188 830.445312 870.21875 830.460938 870.203125 830.476562 C 869.886719 830.714844 869.570312 830.953125 869.253906 831.183594 C 868.535156 831.71875 867.820312 832.234375 867.085938 832.746094 C 865.742188 833.6875 864.378906 834.589844 862.988281 835.460938 C 860.160156 837.246094 857.242188 838.882812 854.265625 840.394531 C 852.746094 841.164062 851.210938 841.898438 849.660156 842.601562 C 848.925781 842.933594 848.191406 843.257812 847.460938 843.574219 C 847.289062 843.644531 847.113281 843.726562 846.941406 843.796875 C 846.542969 843.960938 846.148438 844.128906 845.746094 844.285156 C 839.484375 846.816406 833.019531 848.84375 826.460938 850.449219 C 823.035156 851.285156 819.578125 852.003906 816.109375 852.605469 C 814.394531 852.898438 812.683594 853.160156 810.960938 853.398438 C 810.621094 853.445312 810.589844 853.453125 810.667969 853.445312 C 810.589844 853.453125 810.507812 853.46875 810.421875 853.476562 C 810.003906 853.53125 809.589844 853.585938 809.171875 853.632812 C 808.230469 853.746094 807.289062 853.847656 806.347656 853.941406 C 799.382812 854.640625 792.378906 854.890625 785.378906 854.679688 C 781.855469 854.574219 778.328125 854.355469 774.820312 854.023438 C 773.089844 853.863281 771.363281 853.667969 769.632812 853.445312 C 769.425781 853.421875 769.21875 853.390625 769.007812 853.367188 C 768.941406 853.359375 768.902344 853.351562 768.878906 853.351562 C 768.53125 853.308594 768.191406 853.261719 767.84375 853.207031 C 766.957031 853.074219 766.070312 852.945312 765.191406 852.796875 C 758.222656 851.671875 751.335938 850.097656 744.570312 848.082031 C 741.191406 847.070312 737.84375 845.953125 734.539062 844.722656 C 732.914062 844.121094 731.292969 843.488281 729.6875 842.832031 C 729.292969 842.671875 728.910156 842.507812 728.523438 842.347656 C 728.390625 842.292969 728.316406 842.261719 728.269531 842.238281 C 728.175781 842.199219 728.082031 842.160156 727.992188 842.121094 C 727.117188 841.753906 726.253906 841.367188 725.390625 840.980469 C 719.011719 838.101562 712.824219 834.796875 706.890625 831.078125 C 706.777344 831.007812 706.667969 830.929688 706.550781 830.855469 C 710.910156 828.683594 715.339844 826.632812 719.8125 824.726562 C 719.921875 824.679688 720.03125 824.632812 720.144531 824.585938 C 720.167969 824.578125 720.207031 824.5625 720.269531 824.53125 C 720.625 824.386719 720.976562 824.230469 721.339844 824.085938 C 722.105469 823.769531 722.875 823.453125 723.640625 823.144531 Z M 720.261719 824.53125 C 720.316406 824.507812 720.367188 824.484375 720.421875 824.460938 C 720.40625 824.46875 720.332031 824.5 720.261719 824.53125 Z M 819.773438 527.882812 C 819.765625 527.828125 819.757812 527.773438 819.75 527.710938 C 819.703125 527.394531 819.75 527.679688 819.773438 527.882812 Z M 827.519531 555.59375 C 827.347656 555.207031 827.179688 554.820312 827.007812 554.433594 C 826.945312 554.289062 826.878906 554.132812 826.816406 553.988281 C 826.800781 553.957031 826.792969 553.925781 826.769531 553.878906 C 826.40625 552.992188 826.050781 552.109375 825.710938 551.214844 C 825.027344 549.410156 824.386719 547.585938 823.800781 545.742188 C 822.488281 541.621094 821.429688 537.414062 820.636719 533.160156 C 820.429688 532.042969 820.234375 530.914062 820.058594 529.789062 C 819.972656 529.234375 819.886719 528.683594 819.8125 528.128906 C 819.804688 528.089844 819.796875 528.042969 819.796875 528.003906 C 819.789062 527.6875 819.710938 527.363281 819.671875 527.046875 C 819.371094 524.5625 819.148438 522.070312 819.007812 519.570312 C 818.707031 514.171875 818.777344 508.753906 819.179688 503.367188 C 819.300781 501.730469 819.457031 500.09375 819.65625 498.464844 C 819.679688 498.304688 819.695312 498.148438 819.71875 497.988281 C 819.75 497.757812 819.78125 497.523438 819.816406 497.285156 C 819.925781 496.566406 820.042969 495.84375 820.15625 495.125 C 821.316406 488.125 822.949219 481.199219 824.785156 474.351562 C 826.960938 466.226562 829.453125 458.183594 832.214844 450.234375 C 833.660156 446.085938 835.171875 441.964844 836.765625 437.875 C 837.570312 435.820312 838.394531 433.777344 839.242188 431.738281 C 839.34375 431.5 839.445312 431.261719 839.542969 431.019531 C 839.566406 430.972656 839.589844 430.921875 839.605469 430.867188 C 839.808594 430.394531 840 429.925781 840.207031 429.460938 C 840.648438 428.449219 841.085938 427.433594 841.535156 426.429688 C 844.789062 419.101562 848.363281 411.886719 852.527344 405.03125 C 854.324219 402.074219 856.253906 399.195312 858.335938 396.441406 C 858.359375 396.417969 858.359375 396.402344 858.375 396.386719 C 858.429688 396.316406 858.484375 396.25 858.546875 396.171875 C 858.792969 395.855469 859.046875 395.546875 859.300781 395.230469 C 859.796875 394.628906 860.304688 394.035156 860.820312 393.453125 C 861.507812 392.691406 862.226562 391.949219 862.957031 391.222656 C 863.800781 392.882812 864.601562 394.566406 865.367188 396.257812 C 865.8125 397.246094 866.246094 398.230469 866.675781 399.234375 C 866.761719 399.4375 867.140625 400.332031 866.824219 399.574219 C 866.507812 398.820312 866.910156 399.777344 867 399.992188 C 867.234375 400.554688 867.464844 401.109375 867.6875 401.675781 C 868.652344 404.058594 869.5625 406.460938 870.433594 408.875 C 872.433594 414.417969 874.207031 420.046875 875.765625 425.726562 C 877.546875 432.210938 879.042969 438.777344 880.246094 445.394531 C 880.5625 447.136719 880.863281 448.890625 881.132812 450.648438 C 881.273438 451.550781 881.414062 452.464844 881.542969 453.375 C 881.605469 453.796875 881.660156 454.214844 881.722656 454.640625 C 881.726562 454.671875 881.726562 454.695312 881.734375 454.71875 C 881.757812 454.878906 881.773438 455.042969 881.796875 455.203125 C 882.269531 458.871094 882.644531 462.542969 882.917969 466.226562 C 883.472656 473.828125 883.578125 481.460938 883.15625 489.074219 C 882.941406 492.949219 882.554688 496.800781 882.074219 500.644531 C 882.042969 500.851562 882.023438 501.058594 881.984375 501.269531 C 881.914062 501.761719 881.835938 502.257812 881.757812 502.75 C 881.605469 503.738281 881.441406 504.734375 881.273438 505.714844 C 880.933594 507.660156 880.546875 509.597656 880.125 511.527344 C 879.265625 515.417969 878.242188 519.277344 877.03125 523.074219 C 876.421875 524.996094 875.765625 526.894531 875.0625 528.777344 C 874.714844 529.703125 874.359375 530.628906 873.992188 531.554688 C 873.820312 531.980469 873.644531 532.414062 873.472656 532.835938 C 873.472656 532.84375 873.472656 532.84375 873.464844 532.84375 C 873.359375 533.101562 873.25 533.363281 873.132812 533.617188 C 869.816406 541.289062 865.675781 548.597656 860.777344 555.375 C 860.144531 556.246094 859.542969 557.25 858.800781 558.03125 C 858.800781 558.039062 859.277344 557.421875 859.007812 557.753906 C 858.929688 557.851562 858.855469 557.953125 858.769531 558.054688 C 858.609375 558.253906 858.453125 558.457031 858.292969 558.65625 C 857.945312 559.097656 857.597656 559.527344 857.242188 559.960938 C 855.839844 561.683594 854.378906 563.355469 852.882812 564.992188 C 849.765625 568.390625 846.449219 571.601562 842.96875 574.617188 C 842.601562 574.941406 842.214844 575.25 841.835938 575.574219 C 841.101562 575.160156 840.207031 575.003906 839.335938 575.105469 C 839.082031 574.796875 838.828125 574.488281 838.574219 574.171875 C 838.464844 574.03125 838.347656 573.894531 838.242188 573.746094 C 838.234375 573.730469 838.234375 573.730469 838.21875 573.714844 C 837.546875 572.828125 836.882812 571.933594 836.242188 571.019531 C 834.707031 568.828125 833.273438 566.566406 831.9375 564.253906 C 830.316406 561.441406 828.84375 558.546875 827.519531 555.59375 Z M 786.304688 719.78125 C 786.183594 719.726562 786.011719 719.652344 785.964844 719.636719 C 785.703125 719.519531 785.449219 719.398438 785.195312 719.28125 C 782.316406 717.898438 779.585938 716.199219 776.933594 714.433594 C 775.683594 713.601562 774.457031 712.75 773.238281 711.863281 C 772.675781 711.453125 772.109375 711.039062 771.554688 710.613281 C 771.277344 710.40625 770.992188 710.195312 770.722656 709.980469 C 771.457031 710.582031 770.359375 709.695312 770.207031 709.570312 C 767.898438 707.742188 765.667969 705.820312 763.507812 703.820312 C 759.148438 699.785156 755.101562 695.40625 751.375 690.777344 C 750.902344 690.195312 750.410156 689.617188 749.976562 689.007812 C 750.417969 689.625 749.945312 688.96875 749.761719 688.714844 C 749.523438 688.398438 749.277344 688.074219 749.035156 687.757812 C 748.140625 686.554688 747.261719 685.335938 746.40625 684.089844 C 744.722656 681.660156 743.121094 679.167969 741.597656 676.628906 C 738.527344 671.496094 735.789062 666.160156 733.40625 660.679688 C 733.269531 660.355469 733.128906 660.03125 732.988281 659.707031 C 732.980469 659.683594 732.972656 659.675781 732.96875 659.65625 C 732.988281 659.707031 733.011719 659.761719 733.027344 659.792969 C 732.945312 659.609375 732.875 659.421875 732.796875 659.238281 C 732.511719 658.542969 732.226562 657.839844 731.949219 657.136719 C 731.394531 655.734375 730.859375 654.328125 730.351562 652.910156 C 729.332031 650.066406 728.398438 647.195312 727.558594 644.292969 C 725.570312 637.449219 724.070312 630.460938 723.015625 623.414062 C 722.953125 623 722.890625 622.589844 722.835938 622.171875 C 722.804688 621.933594 722.769531 621.703125 722.738281 621.460938 C 722.761719 621.625 722.828125 622.1875 722.730469 621.425781 C 722.613281 620.535156 722.503906 619.640625 722.398438 618.753906 C 722.1875 616.96875 722.011719 615.179688 721.867188 613.390625 C 721.574219 609.863281 721.378906 606.328125 721.285156 602.792969 C 721.101562 595.582031 721.332031 588.363281 721.925781 581.179688 C 722.074219 579.441406 722.234375 577.707031 722.429688 575.96875 C 722.527344 575.074219 722.628906 574.179688 722.738281 573.273438 C 722.785156 572.921875 722.820312 572.558594 722.867188 572.203125 C 722.898438 571.964844 722.929688 571.722656 722.960938 571.484375 C 722.976562 571.414062 723.046875 570.84375 723.054688 570.789062 C 723.0625 570.75 723.0625 570.726562 723.0625 570.71875 C 723.09375 570.480469 723.128906 570.242188 723.160156 570.003906 C 723.222656 569.585938 723.277344 569.167969 723.339844 568.753906 C 723.476562 567.800781 723.625 566.84375 723.769531 565.894531 C 724.046875 564.175781 724.34375 562.453125 724.652344 560.738281 C 724.773438 560.0625 724.914062 559.390625 725.042969 558.710938 C 725.421875 558.789062 725.800781 558.878906 726.171875 558.972656 C 726.894531 559.15625 727.621094 559.367188 728.332031 559.597656 C 728.707031 559.722656 729.085938 559.851562 729.464844 559.992188 C 729.648438 560.0625 729.84375 560.128906 730.027344 560.207031 C 730.035156 560.207031 730.144531 560.253906 730.257812 560.300781 C 730.351562 560.339844 730.566406 560.429688 730.636719 560.453125 C 730.820312 560.539062 731.007812 560.617188 731.183594 560.703125 C 731.546875 560.871094 731.910156 561.042969 732.273438 561.226562 C 733.042969 561.613281 733.800781 562.019531 734.539062 562.453125 C 735.953125 563.273438 737.316406 564.175781 738.644531 565.132812 C 738.976562 565.371094 739.308594 565.617188 739.640625 565.867188 C 739.648438 565.871094 739.664062 565.886719 739.679688 565.894531 C 739.648438 565.871094 739.625 565.859375 739.59375 565.828125 C 739.753906 565.957031 739.917969 566.082031 740.078125 566.210938 C 740.765625 566.761719 741.445312 567.332031 742.109375 567.910156 C 743.367188 569.007812 744.585938 570.140625 745.765625 571.316406 C 748.148438 573.675781 750.402344 576.175781 752.570312 578.730469 C 753.664062 580.019531 754.746094 581.332031 755.800781 582.660156 C 756.226562 583.203125 756.652344 583.742188 757.074219 584.28125 C 756.898438 584.058594 757.445312 584.753906 757.5625 584.914062 C 757.839844 585.285156 758.117188 585.648438 758.394531 586.019531 C 760.390625 588.6875 762.3125 591.414062 764.15625 594.199219 C 767.835938 599.765625 771.191406 605.539062 774.226562 611.480469 C 775.738281 614.453125 777.171875 617.472656 778.515625 620.527344 C 778.824219 621.230469 779.132812 621.941406 779.433594 622.644531 C 779.5 622.8125 779.570312 622.976562 779.640625 623.144531 C 779.839844 623.617188 780.035156 624.09375 780.226562 624.574219 C 780.84375 626.09375 781.4375 627.628906 782.015625 629.164062 C 784.355469 635.417969 786.351562 641.800781 787.996094 648.277344 C 789.636719 654.753906 790.925781 661.3125 791.851562 667.929688 C 791.875 668.082031 791.898438 668.246094 791.921875 668.398438 C 791.921875 668.40625 791.921875 668.414062 791.921875 668.429688 C 791.976562 668.839844 792.03125 669.25 792.078125 669.648438 C 792.175781 670.46875 792.277344 671.277344 792.363281 672.097656 C 792.546875 673.78125 792.710938 675.46875 792.847656 677.160156 C 793.117188 680.488281 793.304688 683.820312 793.386719 687.15625 C 793.558594 693.824219 793.347656 700.5 792.761719 707.148438 C 792.617188 708.785156 792.445312 710.417969 792.253906 712.046875 C 792.160156 712.859375 792.078125 713.683594 791.945312 714.496094 L 791.945312 714.480469 C 791.921875 714.648438 791.898438 714.828125 791.875 714.996094 C 791.8125 715.453125 791.746094 715.914062 791.675781 716.371094 C 791.429688 717.984375 791.167969 719.589844 790.878906 721.179688 C 790.355469 721.070312 789.832031 720.957031 789.324219 720.816406 C 788.566406 720.609375 787.816406 720.363281 787.085938 720.089844 C 786.875 720.015625 786.660156 719.929688 786.453125 719.84375 C 786.4375 719.835938 786.367188 719.8125 786.304688 719.78125 Z M 946.617188 644.070312 C 945.34375 646.855469 943.984375 649.613281 942.542969 652.3125 C 939.648438 657.71875 936.417969 662.941406 932.867188 667.945312 C 931.964844 669.21875 931.046875 670.46875 930.105469 671.710938 C 929.890625 671.988281 929.683594 672.273438 929.464844 672.550781 C 930.039062 671.804688 929.257812 672.816406 929.144531 672.960938 C 928.648438 673.59375 928.140625 674.21875 927.636719 674.84375 C 925.703125 677.222656 923.695312 679.546875 921.621094 681.800781 C 917.460938 686.308594 913.027344 690.550781 908.34375 694.511719 C 907.195312 695.484375 906.023438 696.433594 904.839844 697.375 C 904.523438 697.621094 904.207031 697.871094 903.894531 698.117188 C 903.554688 698.386719 904.046875 697.992188 904.078125 697.976562 C 903.914062 698.101562 903.761719 698.222656 903.597656 698.347656 C 902.960938 698.835938 902.320312 699.320312 901.671875 699.792969 C 899.203125 701.613281 896.679688 703.347656 894.09375 705 C 888.59375 708.527344 882.855469 711.671875 876.921875 714.402344 C 876.167969 714.75 875.402344 715.097656 874.636719 715.429688 C 874.285156 715.582031 873.929688 715.738281 873.566406 715.890625 C 873.472656 715.9375 872.917969 716.171875 873.1875 716.054688 C 873.019531 716.125 872.785156 716.222656 872.792969 716.214844 C 871.25 716.855469 869.703125 717.46875 868.144531 718.054688 C 864.964844 719.242188 861.746094 720.324219 858.5 721.289062 C 851.941406 723.234375 845.253906 724.722656 838.488281 725.75 C 838.101562 725.8125 837.714844 725.863281 837.332031 725.917969 C 837.136719 725.949219 836.605469 726.019531 836.582031 726.027344 C 835.796875 726.128906 835.007812 726.226562 834.222656 726.3125 C 832.5625 726.496094 830.902344 726.660156 829.238281 726.792969 C 825.804688 727.0625 822.355469 727.214844 818.90625 727.246094 C 815.511719 727.277344 812.125 727.183594 808.738281 726.976562 C 807.074219 726.875 805.414062 726.746094 803.757812 726.582031 C 802.921875 726.503906 802.097656 726.414062 801.273438 726.320312 C 800.886719 726.273438 800.5 726.226562 800.113281 726.179688 C 799.890625 726.148438 799.675781 726.128906 799.453125 726.097656 C 799.421875 726.089844 799.375 726.089844 799.320312 726.082031 C 803.765625 718.925781 808.523438 711.964844 813.652344 705.273438 C 813.691406 705.226562 813.722656 705.179688 813.746094 705.15625 C 813.910156 704.949219 814.070312 704.738281 814.234375 704.53125 C 814.558594 704.121094 814.882812 703.703125 815.203125 703.296875 C 815.851562 702.484375 816.5 701.675781 817.15625 700.871094 C 818.507812 699.21875 819.878906 697.582031 821.285156 695.96875 C 823.914062 692.945312 826.628906 689.988281 829.429688 687.117188 C 834.585938 681.851562 840.03125 676.882812 845.785156 672.28125 C 846.125 672.011719 846.464844 671.742188 846.804688 671.480469 C 847.003906 671.316406 848.109375 670.421875 847.242188 671.132812 C 847.96875 670.539062 848.734375 669.988281 849.480469 669.433594 C 850.824219 668.429688 852.179688 667.449219 853.5625 666.492188 C 856.292969 664.585938 859.078125 662.773438 861.925781 661.042969 C 867.285156 657.785156 872.839844 654.859375 878.566406 652.304688 C 879.199219 652.019531 879.839844 651.742188 880.480469 651.464844 C 880.632812 651.402344 880.789062 651.332031 880.941406 651.265625 C 880.816406 651.316406 880.6875 651.371094 880.664062 651.378906 C 880.832031 651.316406 880.996094 651.242188 881.164062 651.171875 C 881.171875 651.171875 881.1875 651.164062 881.1875 651.164062 C 881.417969 651.070312 881.644531 650.980469 881.875 650.878906 C 883.234375 650.324219 884.597656 649.789062 885.972656 649.273438 C 888.617188 648.285156 891.292969 647.375 893.988281 646.539062 C 899.179688 644.941406 904.457031 643.628906 909.792969 642.628906 C 911.042969 642.394531 912.292969 642.171875 913.542969 641.972656 C 914.160156 641.871094 914.777344 641.777344 915.402344 641.683594 C 915.710938 641.640625 916.019531 641.59375 916.328125 641.554688 C 916.660156 641.507812 918.0625 641.347656 916.589844 641.515625 C 919.027344 641.238281 921.457031 640.929688 923.90625 640.71875 C 931.964844 640.050781 940.074219 640.035156 948.136719 640.621094 C 948.089844 640.742188 948.042969 640.867188 947.980469 640.984375 C 947.988281 640.96875 947.988281 640.96875 947.996094 640.953125 C 947.84375 641.308594 947.695312 641.65625 947.542969 642.007812 C 947.234375 642.695312 946.925781 643.382812 946.617188 644.070312 Z M 946.617188 644.070312 " fill-opacity="1" fill-rule="nonzero"/><path fill="#000000" d="M 881.164062 651.164062 C 881.140625 651.171875 881.097656 651.195312 880.980469 651.242188 C 880.964844 651.25 880.949219 651.257812 880.941406 651.257812 C 881.066406 651.203125 881.179688 651.15625 881.1875 651.15625 C 881.171875 651.15625 881.171875 651.164062 881.164062 651.164062 Z M 881.164062 651.164062 " fill-opacity="1" fill-rule="nonzero"/><path fill="#000000" d="M 873.257812 716.023438 C 873.226562 716.039062 873.210938 716.046875 873.1875 716.054688 C 873.367188 715.976562 873.488281 715.921875 873.257812 716.023438 Z M 873.257812 716.023438 " fill-opacity="1" fill-rule="nonzero"/><path fill="#000000" d="M 671.898438 798.96875 C 671.914062 798.992188 671.9375 799.015625 671.953125 799.039062 C 671.96875 799.0625 671.984375 799.082031 672.003906 799.105469 C 672.019531 799.128906 672.035156 799.144531 672.050781 799.167969 C 672.058594 799.183594 672.074219 799.191406 672.082031 799.207031 C 672.175781 799.324219 672.207031 799.347656 671.898438 798.96875 Z M 671.898438 798.96875 " fill-opacity="1" fill-rule="nonzero"/><path fill="#000000" d="M 606.507812 848.28125 C 606.492188 848.160156 606.476562 848.042969 606.460938 847.925781 C 606.414062 847.625 606.378906 847.371094 606.507812 848.28125 Z M 606.507812 848.28125 " fill-opacity="1" fill-rule="nonzero"/></svg>