<svg xmlns="http://www.w3.org/2000/svg" xmlns:xlink="http://www.w3.org/1999/xlink" width="2000" zoomAndPan="magnify" viewBox="0 0 1500 1499.999933" height="2000" preserveAspectRatio="xMidYMid meet" version="1.0"><defs><clipPath id="446918e3d5"><path d="M 295.421875 690.492188 L 1204.421875 690.492188 L 1204.421875 809.742188 L 295.421875 809.742188 Z M 295.421875 690.492188 " clip-rule="nonzero"/></clipPath><clipPath id="f949bc35d6"><path d="M 0.574219 9 L 909.421875 9 L 909.421875 118 L 0.574219 118 Z M 0.574219 9 " clip-rule="nonzero"/></clipPath><clipPath id="1565956666"><rect x="0" width="910" y="0" height="120"/></clipPath></defs><g clip-path="url(#446918e3d5)"><g transform="matrix(1, 0, 0, 1, 295, 690)"><g clip-path="url(#1565956666)"><g clip-path="url(#f949bc35d6)"><path fill="#000000" d="M 188.339844 117.863281 C 256.691406 117.863281 325.003906 108.28125 391.207031 89.125 L 541.269531 45.730469 C 650.507812 14.160156 767.253906 8.839844 878.890625 30.402344 L 904.539062 35.347656 C 906.644531 35.757812 908.695312 34.371094 909.105469 32.242188 C 909.515625 30.128906 908.128906 28.078125 906.003906 27.667969 L 880.351562 22.722656 C 767.507812 0.925781 649.492188 6.300781 539.085938 38.222656 L 389.023438 81.621094 C 264.125 117.746094 131.636719 119.464844 5.839844 86.625 C 3.75 86.078125 1.625 87.328125 1.078125 89.417969 C 0.535156 91.511719 1.78125 93.640625 3.867188 94.1875 C 64.359375 109.984375 126.371094 117.863281 188.339844 117.863281 Z M 188.339844 117.863281 " fill-opacity="1" fill-rule="nonzero"/></g></g></g></g></svg>