<svg xmlns="http://www.w3.org/2000/svg" viewBox="427.0 576.1 646.0 347.7"><path stroke="#000000" stroke-width="5.0" stroke-linejoin="round" stroke-linecap="round" fill="#000000" d="M 750 811.070312 C 749.253906 811.03125 748.613281 810.753906 748.074219 810.238281 C 738.582031 801.128906 728.382812 792.273438 719.59375 784.640625 L 718.4375 783.613281 C 712.855469 778.804688 707.082031 773.863281 701.757812 768.476562 C 696.433594 763.085938 692.648438 758.339844 689.890625 753.398438 C 686.96875 748.007812 685.066406 742.277344 684.179688 736.207031 C 683.589844 731.863281 683.335938 727.503906 683.410156 723.121094 C 683.433594 722.160156 683.496094 721.199219 683.601562 720.242188 C 683.703125 719.285156 683.84375 718.335938 684.027344 717.390625 C 684.207031 716.445312 684.429688 715.507812 684.6875 714.582031 C 684.949219 713.65625 685.246094 712.742188 685.582031 711.839844 C 685.917969 710.9375 686.289062 710.050781 686.695312 709.179688 C 687.105469 708.308594 687.550781 707.457031 688.03125 706.625 C 688.507812 705.789062 689.023438 704.976562 689.570312 704.183594 C 690.117188 703.394531 690.695312 702.625 691.308594 701.882812 C 691.917969 701.140625 692.558594 700.421875 693.230469 699.730469 C 693.898438 699.042969 694.597656 698.378906 695.324219 697.75 C 696.046875 697.117188 696.796875 696.515625 697.574219 695.945312 C 698.347656 695.375 699.144531 694.839844 699.964844 694.335938 C 700.785156 693.832031 701.625 693.363281 702.484375 692.925781 C 703.34375 692.492188 704.21875 692.09375 705.109375 691.734375 C 706 691.371094 706.90625 691.046875 707.824219 690.761719 C 708.742188 690.476562 709.671875 690.226562 710.609375 690.019531 C 723.121094 687.261719 734.476562 690.46875 744.164062 699.449219 C 746.363281 701.472656 748.308594 703.71875 750 706.183594 C 750.746094 705.085938 751.558594 704.039062 752.4375 703.042969 C 757.953125 696.5 764.625 692.199219 772.132812 690.277344 C 789.003906 685.914062 806.386719 693.996094 813.382812 709.519531 C 815.386719 713.878906 816.453125 718.453125 816.589844 723.25 C 816.71875 730.625 816.011719 737.105469 814.34375 743.007812 C 812.675781 748.910156 809.082031 756.09375 804.015625 762.253906 C 799.667969 767.273438 794.988281 771.957031 789.964844 776.300781 L 777.777344 786.949219 C 773.09375 790.992188 768.21875 795.226562 763.601562 799.460938 C 758.980469 803.695312 755.324219 806.964844 751.925781 810.238281 C 751.386719 810.753906 750.746094 811.03125 750 811.070312 Z M 719.078125 693.417969 C 716.550781 693.449219 714.046875 693.726562 711.574219 694.253906 C 709.925781 694.621094 708.320312 695.121094 706.753906 695.753906 C 705.191406 696.386719 703.6875 697.144531 702.25 698.03125 C 700.8125 698.914062 699.457031 699.910156 698.183594 701.019531 C 696.914062 702.132812 695.742188 703.339844 694.667969 704.644531 C 693.597656 705.949219 692.640625 707.332031 691.800781 708.796875 C 690.960938 710.261719 690.246094 711.785156 689.660156 713.367188 C 689.074219 714.949219 688.621094 716.570312 688.304688 718.230469 C 687.988281 719.886719 687.8125 721.5625 687.773438 723.25 C 687.675781 727.375 687.914062 731.480469 688.480469 735.566406 C 689.25 741.132812 691.003906 746.371094 693.738281 751.28125 C 696.242188 755.902344 699.832031 760.390625 704.835938 765.394531 C 709.839844 770.398438 715.742188 775.597656 721.261719 780.34375 L 722.480469 781.371094 C 730.945312 788.746094 740.699219 797.214844 750 806.003906 L 760.648438 796.1875 C 765.332031 791.953125 770.207031 787.71875 774.890625 783.679688 L 787.078125 773.03125 C 791.945312 768.847656 796.457031 764.316406 800.613281 759.429688 C 805.363281 753.785156 808.441406 748.074219 810.171875 741.851562 C 811.90625 735.628906 812.355469 730.304688 812.226562 723.378906 C 812.117188 719.171875 811.199219 715.152344 809.46875 711.316406 C 803.308594 697.71875 788.042969 690.660156 773.222656 694.445312 C 766.488281 696.175781 760.777344 699.898438 755.710938 705.863281 C 754.304688 707.574219 753.023438 709.371094 751.859375 711.253906 L 750.0625 714.203125 L 747.820312 710.738281 C 746.007812 707.726562 743.804688 705.03125 741.210938 702.65625 C 734.605469 696.496094 727.164062 693.417969 719.078125 693.417969 Z M 719.078125 693.417969 " fill-opacity="1" fill-rule="nonzero"></path><path stroke="#000000" stroke-width="5.0" stroke-linejoin="round" stroke-linecap="round" fill="#000000" d="M 745.125 645.945312 C 747.371094 649.796875 753.398438 656.402344 768.21875 656.597656 C 772.660156 656.707031 777.0625 656.367188 781.433594 655.570312 L 775.980469 657.816406 C 772.785156 659.242188 769.472656 660.289062 766.039062 660.957031 C 765.554688 661.023438 765.128906 661.222656 764.765625 661.550781 C 764.402344 661.878906 764.164062 662.277344 764.050781 662.753906 C 763.910156 663.222656 763.910156 663.6875 764.050781 664.152344 C 764.191406 664.617188 764.445312 665.007812 764.820312 665.320312 C 768.859375 668.71875 779.957031 675.90625 795.417969 669.554688 C 799.175781 668.023438 803.046875 666.867188 807.03125 666.089844 C 805.441406 666.667969 803.816406 667.117188 802.15625 667.4375 C 801.890625 667.484375 801.636719 667.570312 801.398438 667.699219 C 801.160156 667.828125 800.949219 667.992188 800.765625 668.1875 C 800.582031 668.382812 800.429688 668.605469 800.316406 668.847656 C 800.203125 669.09375 800.132812 669.351562 800.101562 669.617188 C 800.074219 669.890625 800.085938 670.160156 800.144531 670.429688 C 800.203125 670.699219 800.300781 670.949219 800.4375 671.1875 C 800.578125 671.425781 800.75 671.632812 800.957031 671.816406 C 801.160156 671.996094 801.390625 672.140625 801.640625 672.25 C 805.234375 673.789062 810.6875 675.648438 816.269531 675.90625 L 821.847656 675.90625 C 822.261719 674.902344 822.753906 673.941406 823.324219 673.019531 C 823.386719 672.953125 823.386719 672.828125 823.453125 672.761719 C 825.3125 670.003906 830.125 670.453125 837.179688 672.054688 C 838.773438 672.398438 840.332031 672.847656 841.863281 673.402344 C 844.5 674.457031 847.046875 675.695312 849.5 677.125 C 855.527344 680.71875 863.675781 686.941406 875.609375 698.039062 C 898.125 719.015625 914.609375 722.671875 915.316406 722.800781 L 924.746094 724.789062 L 916.40625 719.914062 C 890.425781 704.773438 881.125 688.03125 876.121094 679.050781 C 875.222656 677.507812 874.515625 676.226562 873.8125 675.136719 C 871.054688 670.710938 864.1875 663.394531 857.582031 656.277344 C 852.578125 650.886719 847.382812 645.304688 844.367188 641.457031 C 837.054688 632.027344 828.519531 630.101562 809.660156 625.996094 C 793.367188 622.402344 784.960938 618.042969 778.097656 614.578125 L 774.890625 612.972656 C 770.976562 611.050781 769.886719 608.289062 769.628906 606.878906 C 769.359375 605.691406 769.511719 604.558594 770.078125 603.480469 C 772.066406 602.582031 785.796875 603.480469 810.878906 609.507812 C 818.898438 611.5 825.761719 612.589844 831.792969 613.613281 C 843.402344 615.605469 851.039062 616.886719 855.273438 622.082031 C 862.328125 630.742188 896.199219 651.078125 912.878906 656.597656 C 927.890625 661.601562 937.960938 676.035156 947.714844 689.953125 L 949.636719 692.714844 C 960.160156 707.660156 995.699219 744.867188 1008.527344 751.667969 C 1021.359375 758.46875 1047.917969 754.425781 1049.070312 754.296875 L 1048.621094 751.15625 C 1048.367188 751.21875 1021.742188 755.132812 1010.003906 748.84375 C 998.265625 742.558594 962.339844 705.285156 952.203125 690.851562 L 950.277344 688.160156 C 940.273438 673.789062 929.878906 658.90625 913.839844 653.582031 C 897.804688 648.257812 864.382812 628.242188 857.710938 620.09375 C 854.4375 615.988281 849.691406 614.0625 843.277344 612.589844 C 840.066406 611.820312 836.410156 611.242188 832.304688 610.535156 C 826.339844 609.507812 819.539062 608.417969 811.648438 606.496094 C 807.542969 605.46875 771.746094 597 767.835938 601.234375 C 766.613281 602.582031 766.101562 605.019531 766.550781 607.457031 C 767 609.894531 768.347656 613.230469 773.542969 615.796875 L 776.6875 617.398438 C 783.996094 621.300781 791.628906 624.402344 799.589844 626.703125 C 792.660156 627.152344 784.320312 628.304688 779.125 631.257812 C 770.976562 636.003906 753.847656 640.496094 747.304688 641.390625 C 746.820312 641.453125 746.378906 641.625 745.980469 641.910156 C 745.582031 642.191406 745.273438 642.554688 745.058594 642.996094 C 744.824219 643.460938 744.714844 643.957031 744.722656 644.480469 C 744.734375 645.003906 744.871094 645.492188 745.125 645.945312 Z M 877.660156 688.03125 C 883.730469 697.628906 891.257812 705.90625 900.242188 712.855469 C 892.089844 708.042969 884.585938 702.378906 877.722656 695.855469 C 868.871094 687.582031 861.945312 681.9375 856.425781 678.085938 C 860.082031 678.601562 863.097656 679.304688 864.894531 680.203125 C 869.433594 682.351562 873.6875 684.960938 877.660156 688.03125 Z M 871.179688 676.933594 C 871.824219 677.957031 872.527344 679.242188 873.363281 680.71875 L 873.746094 681.488281 C 871.351562 679.960938 868.871094 678.59375 866.304688 677.382812 C 863.164062 675.839844 857.195312 674.816406 850.460938 674.171875 C 846.535156 671.820312 842.34375 670.128906 837.886719 669.105469 C 830.765625 667.5 823.644531 666.347656 820.566406 671.542969 C 820.355469 671.984375 820.121094 672.414062 819.859375 672.828125 L 816.332031 672.828125 C 812.324219 672.523438 808.453125 671.625 804.722656 670.132812 C 806.546875 669.710938 808.296875 669.09375 809.980469 668.273438 C 811.070312 667.757812 818.128906 665.320312 822.554688 663.84375 L 822.617188 663.84375 C 838.59375 662.433594 855.722656 663.652344 864.382812 668.527344 C 867.332031 671.800781 869.832031 674.75 871.179688 676.933594 Z M 844.429688 646.652344 C 847.382812 650.117188 851.230469 654.222656 855.273438 658.519531 L 859.441406 663.074219 C 841.800781 657.75 810.496094 659.933594 794.265625 666.605469 C 781.5625 671.863281 772.195312 666.988281 767.960938 663.78125 C 771.132812 663.035156 774.214844 662.007812 777.199219 660.703125 C 785.15625 657.367188 800.167969 651.335938 802.28125 650.4375 L 803.246094 650.4375 C 811.007812 649.988281 814.277344 649.667969 821.59375 648.898438 Z M 780.726562 634.144531 C 789.644531 629.011719 810.046875 629.71875 811.839844 629.78125 L 811.90625 629.78125 C 828.390625 633.4375 835.640625 635.363281 841.863281 643.445312 L 842.054688 643.636719 C 832.113281 644.535156 825.890625 645.175781 821.273438 645.691406 C 814.023438 646.394531 810.75 646.71875 803.054688 647.164062 C 797.886719 647.433594 792.882812 648.480469 788.042969 650.308594 C 783.230469 651.976562 778.738281 653.515625 768.28125 653.386719 C 755.324219 653.195312 750.0625 647.871094 748.011719 644.535156 C 754.746094 643.636719 772.003906 639.148438 780.726562 634.144531 Z M 780.726562 634.144531 " fill-opacity="1" fill-rule="nonzero"></path><path stroke="#000000" stroke-width="5.0" stroke-linejoin="round" stroke-linecap="round" fill="#000000" d="M 818.578125 675.96875 L 821.847656 675.96875 C 820.695312 679.242188 820.886719 683.730469 828.136719 690.980469 C 832.625 695.535156 836.027344 697.84375 839.875 700.476562 C 846.273438 704.726562 852.175781 709.578125 857.582031 715.039062 C 864.253906 721.773438 870.476562 729.535156 877.082031 737.8125 C 884.589844 747.242188 892.285156 756.929688 901.011719 765.140625 L 905.246094 769.179688 C 919.613281 782.972656 930.96875 793.816406 957.335938 799.972656 C 986.394531 806.773438 1021.550781 815.304688 1026.492188 816.652344 L 1025.71875 819.667969 C 1020.78125 818.386719 985.625 809.851562 956.628906 803.050781 C 929.429688 796.703125 917.175781 784.960938 903.0625 771.492188 L 898.832031 767.386719 C 889.976562 759.046875 882.152344 749.230469 874.582031 739.800781 C 868.101562 731.589844 861.941406 723.890625 855.335938 717.28125 C 850.109375 711.945312 844.378906 707.21875 838.144531 703.105469 C 833.703125 700.253906 829.617188 696.960938 825.890625 693.226562 C 818.257812 685.65625 817.421875 680.269531 818.578125 675.96875 Z M 818.578125 675.96875 " fill-opacity="1" fill-rule="nonzero"></path><path stroke="#000000" stroke-width="5.0" stroke-linejoin="round" stroke-linecap="round" fill="#000000" d="M 754.875 854.179688 C 752.628906 850.332031 746.601562 843.722656 731.78125 843.53125 C 727.339844 843.417969 722.9375 843.761719 718.566406 844.558594 L 724.019531 842.3125 C 727.214844 840.886719 730.527344 839.839844 733.960938 839.167969 C 734.445312 839.105469 734.871094 838.90625 735.234375 838.578125 C 735.597656 838.25 735.835938 837.847656 735.949219 837.375 C 736.089844 836.90625 736.089844 836.441406 735.949219 835.976562 C 735.808594 835.507812 735.554688 835.121094 735.179688 834.808594 C 731.140625 831.40625 720.042969 824.222656 704.582031 830.574219 C 700.824219 832.105469 696.953125 833.261719 692.96875 834.039062 C 694.558594 833.457031 696.183594 833.007812 697.84375 832.691406 C 698.109375 832.644531 698.363281 832.554688 698.601562 832.429688 C 698.835938 832.300781 699.050781 832.136719 699.234375 831.941406 C 699.417969 831.746094 699.570312 831.523438 699.683594 831.277344 C 699.796875 831.035156 699.867188 830.777344 699.898438 830.507812 C 699.925781 830.238281 699.914062 829.964844 699.855469 829.699219 C 699.796875 829.429688 699.699219 829.175781 699.5625 828.941406 C 699.421875 828.703125 699.25 828.496094 699.042969 828.3125 C 698.839844 828.132812 698.609375 827.988281 698.359375 827.878906 C 694.765625 826.339844 689.3125 824.480469 683.730469 824.222656 L 678.152344 824.222656 C 677.738281 825.222656 677.246094 826.1875 676.675781 827.109375 C 676.609375 827.171875 676.609375 827.300781 676.546875 827.367188 C 674.6875 830.125 669.875 829.675781 662.820312 828.070312 C 661.226562 827.730469 659.667969 827.28125 658.136719 826.722656 C 655.5 825.671875 652.953125 824.433594 650.5 823.003906 C 644.472656 819.410156 636.324219 813.1875 624.390625 802.089844 C 601.875 781.113281 585.386719 777.457031 584.683594 777.328125 L 575.253906 775.339844 L 583.59375 780.214844 C 609.574219 795.355469 618.875 812.097656 623.878906 821.078125 C 624.777344 822.617188 625.484375 823.902344 626.1875 824.992188 C 628.945312 829.417969 635.8125 836.730469 642.417969 843.851562 C 647.421875 849.242188 652.617188 854.824219 655.632812 858.671875 C 662.945312 868.101562 671.480469 870.027344 690.339844 874.132812 C 706.632812 877.722656 715.039062 882.085938 721.902344 885.550781 L 725.109375 887.15625 C 729.023438 889.078125 730.113281 891.835938 730.371094 893.25 C 730.640625 894.4375 730.488281 895.570312 729.921875 896.648438 C 727.933594 897.546875 714.203125 896.648438 689.121094 890.617188 C 681.101562 888.628906 674.238281 887.539062 668.207031 886.511719 C 656.597656 884.523438 648.960938 883.242188 644.726562 878.046875 C 637.671875 869.386719 603.800781 849.050781 587.121094 843.53125 C 572.109375 838.527344 562.039062 824.09375 552.285156 810.171875 L 550.363281 807.414062 C 539.839844 792.339844 504.300781 755.132812 491.472656 748.332031 C 478.640625 741.53125 452.082031 745.574219 450.929688 745.703125 L 451.378906 748.84375 C 451.632812 748.78125 478.257812 744.867188 489.996094 751.15625 C 501.734375 757.441406 537.660156 794.714844 547.796875 809.148438 L 549.722656 811.839844 C 559.726562 826.210938 570.121094 841.09375 586.160156 846.417969 C 602.195312 851.742188 635.617188 871.757812 642.289062 879.90625 C 645.5625 884.011719 650.308594 885.9375 656.722656 887.410156 C 659.933594 888.179688 663.589844 888.757812 667.695312 889.464844 C 673.660156 890.492188 680.460938 891.582031 688.351562 893.503906 C 692.457031 894.53125 728.253906 903 732.164062 898.765625 C 733.386719 897.417969 733.898438 894.980469 733.449219 892.542969 C 733 890.105469 731.652344 886.769531 726.457031 884.203125 L 723.3125 882.601562 C 716.003906 878.699219 708.371094 875.597656 700.410156 873.296875 C 707.339844 872.847656 715.679688 871.695312 720.875 868.742188 C 729.023438 863.996094 746.152344 859.503906 752.695312 858.609375 C 753.179688 858.546875 753.621094 858.375 754.019531 858.089844 C 754.417969 857.804688 754.726562 857.445312 754.941406 857.003906 C 755.152344 856.554688 755.253906 856.082031 755.242188 855.585938 C 755.230469 855.085938 755.109375 854.621094 754.875 854.179688 Z M 622.339844 812.097656 C 616.269531 802.496094 608.742188 794.222656 599.757812 787.273438 C 607.910156 792.085938 615.414062 797.75 622.277344 804.273438 C 631.128906 812.546875 638.054688 818.191406 643.574219 822.042969 C 639.917969 821.527344 636.902344 820.824219 635.105469 819.925781 C 630.566406 817.777344 626.3125 815.167969 622.339844 812.097656 Z M 628.820312 823.195312 C 628.175781 822.167969 627.472656 820.886719 626.636719 819.410156 L 626.253906 818.640625 C 628.648438 820.164062 631.128906 821.535156 633.695312 822.746094 C 636.835938 824.285156 642.804688 825.3125 649.539062 825.953125 C 653.464844 828.308594 657.652344 829.996094 662.113281 831.023438 C 669.234375 832.625 676.355469 833.78125 679.433594 828.585938 C 679.644531 828.144531 679.878906 827.714844 680.140625 827.300781 L 683.667969 827.300781 C 687.675781 827.601562 691.546875 828.5 695.277344 829.996094 C 693.453125 830.414062 691.703125 831.035156 690.019531 831.855469 C 688.929688 832.371094 681.871094 834.808594 677.445312 836.28125 L 677.382812 836.28125 C 661.40625 837.695312 644.277344 836.476562 635.617188 831.601562 C 632.667969 828.328125 630.167969 825.378906 628.820312 823.195312 Z M 655.570312 853.476562 C 652.617188 850.011719 648.769531 845.90625 644.726562 841.609375 L 640.558594 837.054688 C 658.199219 842.378906 689.503906 840.195312 705.734375 833.523438 C 718.4375 828.265625 727.804688 833.140625 732.039062 836.347656 C 728.867188 837.09375 725.785156 838.121094 722.800781 839.425781 C 714.84375 842.761719 699.832031 848.792969 697.71875 849.691406 L 696.753906 849.691406 C 688.992188 850.140625 685.722656 850.460938 678.40625 851.230469 Z M 719.273438 865.984375 C 710.355469 871.117188 689.953125 870.410156 688.160156 870.347656 L 688.09375 870.347656 C 671.609375 866.691406 664.359375 864.765625 658.136719 856.683594 L 657.945312 856.492188 C 667.886719 855.59375 674.109375 854.949219 678.726562 854.4375 C 685.976562 853.730469 689.25 853.410156 696.945312 852.960938 C 702.113281 852.695312 707.117188 851.648438 711.957031 849.820312 C 716.769531 848.152344 721.261719 846.609375 731.71875 846.738281 C 744.675781 846.933594 749.9375 852.257812 751.988281 855.59375 C 745.253906 856.492188 727.996094 860.980469 719.273438 865.984375 Z M 719.273438 865.984375 " fill-opacity="1" fill-rule="nonzero"></path><path stroke="#000000" stroke-width="5.0" stroke-linejoin="round" stroke-linecap="round" fill="#000000" d="M 681.421875 824.160156 L 678.152344 824.160156 C 679.304688 820.886719 679.113281 816.394531 671.863281 809.148438 C 667.375 804.59375 663.972656 802.28125 660.125 799.652344 C 653.726562 795.402344 647.824219 790.546875 642.417969 785.089844 C 635.746094 778.355469 629.523438 770.59375 622.917969 762.316406 C 615.410156 752.886719 607.714844 743.199219 598.988281 734.988281 L 594.753906 730.945312 C 580.386719 717.15625 569.03125 706.3125 542.664062 700.15625 C 513.605469 693.355469 478.449219 684.824219 473.507812 683.476562 L 474.277344 680.460938 C 479.21875 681.742188 514.375 690.273438 543.371094 697.074219 C 570.570312 703.425781 582.824219 715.164062 596.9375 728.636719 L 601.167969 732.742188 C 610.023438 741.082031 617.847656 750.898438 625.417969 760.328125 C 631.898438 768.539062 638.054688 776.238281 644.664062 782.84375 C 649.890625 788.183594 655.621094 792.910156 661.855469 797.023438 C 666.296875 799.871094 670.382812 803.164062 674.109375 806.902344 C 681.742188 814.472656 682.578125 819.859375 681.421875 824.160156 Z M 681.421875 824.160156 " fill-opacity="1" fill-rule="nonzero"></path></svg>